HIERARCHY
ROOT joint_Root
{
	OFFSET 0.0 0.0 0.0
	CHANNELS 6 Xposition Yposition Zposition Zrotation Xrotation Yrotation 
	JOINT Hips
	{
		OFFSET 4.5925 91.4895 -427.239
		CHANNELS 6 Xposition Yposition Zposition Zrotation Xrotation Yrotation 
		JOINT Spine
		{
			OFFSET 15.7357 0.0 0.0
			CHANNELS 6 Xposition Yposition Zposition Zrotation Xrotation Yrotation 
			JOINT Chest
			{
				OFFSET 8.98455 -0.406207 0.0
				CHANNELS 6 Xposition Yposition Zposition Zrotation Xrotation Yrotation 
				JOINT Neck
				{
					OFFSET 16.3773 0.0 0.0
					CHANNELS 6 Xposition Yposition Zposition Zrotation Xrotation Yrotation 
					JOINT Head
					{
						OFFSET 6.45672 0.0 0.0
						CHANNELS 6 Xposition Yposition Zposition Zrotation Xrotation Yrotation 
						End Site
						{
							OFFSET 0.0 0.0 0.0
						}
					}
				}
				JOINT Shoulder_L
				{
					OFFSET 12.9942 -0.242716 4.98039
					CHANNELS 6 Xposition Yposition Zposition Zrotation Xrotation Yrotation 
					JOINT UpperArm_L
					{
						OFFSET 5.34809 0.0 0.0
						CHANNELS 6 Xposition Yposition Zposition Zrotation Xrotation Yrotation 
						JOINT LowerArm_L
						{
							OFFSET 24.3286 1.87007e-05 0.0
							CHANNELS 6 Xposition Yposition Zposition Zrotation Xrotation Yrotation 
							JOINT Hand_L
							{
								OFFSET 22.2916 0.0 0.0
								CHANNELS 6 Xposition Yposition Zposition Zrotation Xrotation Yrotation 
								End Site
								{
									OFFSET 0.0 0.0 0.0
								}
							}
						}
					}
				}
				JOINT Shoulder_R
				{
					OFFSET 12.9945 -0.242716 -4.98039
					CHANNELS 6 Xposition Yposition Zposition Zrotation Xrotation Yrotation 
					JOINT UpperArm_R
					{
						OFFSET -5.34813 0.0 0.0
						CHANNELS 6 Xposition Yposition Zposition Zrotation Xrotation Yrotation 
						JOINT LowerArm_R
						{
							OFFSET -24.3289 0.000322201 0.0
							CHANNELS 6 Xposition Yposition Zposition Zrotation Xrotation Yrotation 
							JOINT Hand_R
							{
								OFFSET -22.2915 -0.000108084 0.0
								CHANNELS 6 Xposition Yposition Zposition Zrotation Xrotation Yrotation 
								End Site
								{
									OFFSET 0.0 0.0 0.0
								}
							}
						}
					}
				}
			}
		}
		JOINT UpperLeg_L
		{
			OFFSET -2.19248 -6.46944 0.0
			CHANNELS 6 Xposition Yposition Zposition Zrotation Xrotation Yrotation 
			JOINT LowerLeg_L
			{
				OFFSET 39.0811 0.0 -1.23785e-05
				CHANNELS 6 Xposition Yposition Zposition Zrotation Xrotation Yrotation 
				JOINT Foot_L
				{
					OFFSET 40.9854 0.0 -1.26872e-05
					CHANNELS 6 Xposition Yposition Zposition Zrotation Xrotation Yrotation 
					JOINT Toes_L
					{
						OFFSET 11.7543 0.0 0.0
						CHANNELS 6 Xposition Yposition Zposition Zrotation Xrotation Yrotation 
						End Site
						{
							OFFSET 0.0 0.0 0.0
						}
					}
				}
			}
		}
		JOINT UpperLeg_R
		{
			OFFSET -2.19251 6.46944 0.0
			CHANNELS 6 Xposition Yposition Zposition Zrotation Xrotation Yrotation 
			JOINT LowerLeg_R
			{
				OFFSET -39.0811 -0.00228153 -0.0401928
				CHANNELS 6 Xposition Yposition Zposition Zrotation Xrotation Yrotation 
				JOINT Foot_R
				{
					OFFSET -40.9854 0.0 0.0
					CHANNELS 6 Xposition Yposition Zposition Zrotation Xrotation Yrotation 
					JOINT Toes_R
					{
						OFFSET -11.7543 0.0 0.0
						CHANNELS 6 Xposition Yposition Zposition Zrotation Xrotation Yrotation 
						End Site
						{
							OFFSET 0.0 0.0 0.0
						}
					}
				}
			}
		}
	}
}
MOTION
Frames:	4
Frame Time:	0.0333333
0.000000 0.000000 0.000000 0.000000 0.000000 -0.000000 1.240420 90.326600 1.466420 90.434100 -2.674990 11.998300 15.735700 0.000005 -0.000001 89.536700 80.912900 -90.379600 8.984550 -0.406207 -0.000000 10.407000 -0.165354 -1.669690 16.377300 -0.000001 -0.000001 1.063520 -3.679520 1.752620 6.456720 -0.000001 -0.000000 -11.829500 -2.260780 -2.903860 12.994200 -0.242716 4.980390 -91.934300 7.287480 -75.091100 5.348090 -0.000007 -0.000001 -58.394400 40.312900 -18.673800 24.328600 0.000019 0.000005 7.572980 21.463100 -19.968300 22.291600 -0.000001 0.000005 9.526740 5.334530 -0.918185 12.994500 -0.242716 -4.980390 88.788700 10.877600 -83.607100 -5.348130 -0.000001 -0.000004 -61.771800 31.244700 -13.910900 -24.328900 0.000322 -0.000009 2.717280 6.985290 -21.326200 -22.291500 -0.000108 -0.000004 12.245400 5.420150 -3.603930 -2.192480 -6.469440 -0.000000 -176.015000 -13.344000 2.576680 39.081100 -0.000007 -0.000012 -0.138900 0.222727 31.949400 40.985400 -0.000006 -0.000013 1.764710 5.802070 -72.467000 11.754300 -0.000000 0.000003 -0.000134 -0.001322 -16.628000 -2.192510 6.469440 -0.000001 170.290000 20.479000 -175.567000 -39.081100 -0.002282 -0.040193 -0.219475 0.361767 31.624800 -40.985400 0.000008 0.000006 2.318450 13.046500 -72.903600 -11.754300 -0.000006 -0.000006 -0.002046 -0.029293 -17.764200
0.000000 0.000000 0.000000 0.000000 0.000000 -0.000000 1.318230 90.339700 1.338090 90.397100 -2.835190 12.019000 15.735700 0.000005 -0.000001 89.398800 80.834300 -90.252900 8.984550 -0.406207 -0.000000 10.563500 -0.211839 -1.687660 16.377300 -0.000001 -0.000001 1.403410 -3.571040 1.671480 6.456720 -0.000001 -0.000000 -11.531700 -2.135920 -2.905660 12.994200 -0.242716 4.980390 -91.943400 7.259420 -74.969300 5.348090 -0.000007 -0.000001 -58.642400 40.395600 -18.376900 24.328600 0.000019 0.000005 7.589130 21.365300 -20.088200 22.291600 -0.000001 0.000005 9.377040 5.337270 -0.998740 12.994500 -0.242716 -4.980390 88.739200 11.000700 -83.420800 -5.348130 -0.000001 -0.000004 -61.243700 29.339400 -14.096400 -24.328900 0.000322 -0.000009 2.582350 6.243700 -22.532700 -22.291500 -0.000108 -0.000004 12.420900 5.420190 -3.605460 -2.192480 -6.469440 -0.000000 -176.015000 -13.474500 2.506280 39.081100 -0.000007 -0.000012 -0.138040 0.221163 31.970700 40.985400 -0.000006 -0.000013 1.807360 5.742310 -72.399500 11.754300 -0.000000 0.000003 -0.000132 -0.001305 -16.627300 -2.192510 6.469440 -0.000001 170.303000 20.436400 -175.670000 -39.081100 -0.002282 -0.040193 -0.218716 0.360738 31.610300 -40.985400 0.000008 0.000006 2.264280 13.213000 -72.760800 -11.754300 -0.000006 -0.000006 -0.002057 -0.029434 -17.770000
0.000000 0.000000 0.000000 0.000000 0.000000 -0.000000 1.413560 90.346300 1.224880 90.394200 -3.019820 12.112500 15.735700 0.000005 -0.000001 89.250000 80.743200 -90.122500 8.984550 -0.406207 -0.000000 10.744600 -0.263234 -1.719110 16.377300 -0.000001 -0.000001 1.825360 -3.470450 1.632430 6.456720 -0.000001 -0.000000 -11.105400 -1.978410 -3.026720 12.994200 -0.242716 4.980390 -91.953500 7.276430 -74.928400 5.348090 -0.000007 -0.000001 -58.688500 40.760100 -18.155600 24.328600 0.000019 0.000005 7.570350 21.070900 -20.287300 22.291600 -0.000001 0.000005 9.216170 5.335640 -0.950847 12.994500 -0.242716 -4.980390 88.695100 11.079500 -83.240100 -5.348130 -0.000001 -0.000004 -60.526200 27.243600 -14.530000 -24.328900 0.000322 -0.000009 2.431350 5.438270 -24.145000 -22.291500 -0.000108 -0.000004 12.691300 5.420530 -3.616430 -2.192480 -6.469440 -0.000000 -176.062000 -13.564600 2.526130 39.081100 -0.000007 -0.000012 -0.136688 0.218856 31.987400 40.985400 -0.000006 -0.000013 1.853430 5.632270 -72.350200 11.754300 -0.000000 0.000003 -0.000126 -0.001253 -16.625400 -2.192510 6.469440 -0.000001 170.226000 20.368600 -175.703000 -39.081100 -0.002282 -0.040193 -0.223678 0.368675 31.619000 -40.985400 0.000008 0.000006 2.127580 13.422400 -72.611600 -11.754300 -0.000006 -0.000006 -0.002028 -0.029061 -17.754800
0.000000 0.000000 0.000000 0.000000 0.000000 -0.000000 1.511740 90.352800 1.112970 90.371900 -3.292380 12.199300 15.735700 0.000005 -0.000001 89.061800 80.661800 -89.951000 8.984550 -0.406207 -0.000000 10.906100 -0.327867 -1.746090 16.377300 -0.000001 -0.000001 2.203400 -3.400860 1.624880 6.456720 -0.000001 -0.000000 -10.467200 -1.788800 -3.287100 12.994200 -0.242716 4.980390 -91.977100 7.322060 -74.844300 5.348090 -0.000007 -0.000001 -58.763800 40.915200 -17.962700 24.328600 0.000019 0.000005 7.639780 21.079300 -20.452900 22.291600 -0.000001 0.000005 9.020260 5.334200 -0.908430 12.994500 -0.242716 -4.980390 88.663300 11.094100 -83.085900 -5.348130 -0.000001 -0.000004 -59.612700 25.196100 -15.351400 -24.328900 0.000322 -0.000009 2.318800 4.771660 -25.967600 -22.291500 -0.000108 -0.000004 12.963800 5.422140 -3.671400 -2.192480 -6.469440 -0.000000 -176.069000 -13.739300 2.551380 39.081100 -0.000007 -0.000012 -0.133963 0.214309 32.009500 40.985400 -0.000006 -0.000013 1.902940 5.534920 -72.312000 11.754300 -0.000000 0.000003 -0.000130 -0.001283 -16.626500 -2.192510 6.469440 -0.000001 170.242000 20.206300 -175.783000 -39.081100 -0.002282 -0.040193 -0.217338 0.357625 31.672800 -40.985400 0.000008 0.000006 2.254340 13.473400 -72.556300 -11.754300 -0.000006 -0.000006 -0.002176 -0.030893 -17.829300
